<mxfile host="app.diagrams.net" modified="2021-03-01T15:29:23.678Z" agent="5.0 (Windows NT 10.0; Win64; x64) AppleWebKit/537.36 (KHTML, like Gecko) Chrome/87.0.4280.66 Safari/537.36" etag="4aEuILzu51JpletxktNO" version="14.4.3" type="github">
  <diagram name="Page-1" id="bfe91b75-5d2c-26a0-9c1d-138518896778">
    <mxGraphModel dx="2491" dy="1644" grid="1" gridSize="10" guides="1" tooltips="1" connect="1" arrows="1" fold="1" page="1" pageScale="1" pageWidth="1100" pageHeight="850" background="#ffffff" math="0" shadow="0">
      <root>
        <mxCell id="0" />
        <mxCell id="1" parent="0" />
        <mxCell id="hzs8G2BnuAS4f3jiqhve-1" value="SaaS (Hosted by Voith in AWS)" style="rounded=1;whiteSpace=wrap;html=1;shadow=0;comic=0;strokeColor=#036897;strokeWidth=2;fillColor=none;fontFamily=Verdana;fontSize=28;fontColor=#6881B3;align=center;arcSize=11;verticalAlign=bottom;" parent="1" vertex="1">
          <mxGeometry x="-970" y="120" width="260" height="240" as="geometry" />
        </mxCell>
        <mxCell id="5VQCpyMXvFSsDKne97cI-13" value="" style="rounded=1;whiteSpace=wrap;html=1;shadow=0;comic=0;strokeColor=#036897;strokeWidth=2;fillColor=none;fontFamily=Verdana;fontSize=28;fontColor=#6881B3;align=center;arcSize=11;verticalAlign=top;" parent="1" vertex="1">
          <mxGeometry x="-368.88" y="440" width="260" height="320" as="geometry" />
        </mxCell>
        <mxCell id="zYysgDhRsV4P9b-H903_-95" value="Legacy Systems" style="rounded=1;whiteSpace=wrap;html=1;shadow=0;comic=0;strokeColor=#036897;strokeWidth=2;fillColor=none;fontFamily=Verdana;fontSize=28;fontColor=#6881B3;align=center;arcSize=11;verticalAlign=top;" parent="1" vertex="1">
          <mxGeometry x="-102.79" y="440" width="402.79" height="320" as="geometry" />
        </mxCell>
        <mxCell id="5VQCpyMXvFSsDKne97cI-15" style="edgeStyle=orthogonalEdgeStyle;shape=flexArrow;rounded=0;orthogonalLoop=1;jettySize=auto;html=1;fillColor=#f8cecc;strokeColor=#b85450;" parent="1" source="7c3789c024ecab99-78" edge="1">
          <mxGeometry relative="1" as="geometry">
            <mxPoint x="-239" y="359" as="sourcePoint" />
            <mxPoint x="-270" y="440" as="targetPoint" />
          </mxGeometry>
        </mxCell>
        <mxCell id="hzs8G2BnuAS4f3jiqhve-2" style="edgeStyle=orthogonalEdgeStyle;shape=flexArrow;rounded=0;orthogonalLoop=1;jettySize=auto;html=1;exitX=0;exitY=0.5;exitDx=0;exitDy=0;entryX=1;entryY=0.5;entryDx=0;entryDy=0;fillColor=#f8cecc;strokeColor=#b85450;" parent="1" source="7c3789c024ecab99-78" target="hzs8G2BnuAS4f3jiqhve-1" edge="1">
          <mxGeometry relative="1" as="geometry" />
        </mxCell>
        <mxCell id="7c3789c024ecab99-78" value="Innospace Services" style="rounded=1;whiteSpace=wrap;html=1;shadow=0;comic=0;strokeColor=#036897;strokeWidth=2;fillColor=none;fontFamily=Verdana;fontSize=28;fontColor=#6881B3;align=center;arcSize=11;verticalAlign=bottom;" parent="1" vertex="1">
          <mxGeometry x="-610" y="120" width="680" height="240" as="geometry" />
        </mxCell>
        <mxCell id="7c3789c024ecab99-79" value="Backend Services in the Cloud" style="rounded=1;whiteSpace=wrap;html=1;shadow=0;comic=0;strokeColor=#036897;strokeWidth=2;fillColor=none;fontFamily=Verdana;fontSize=28;fontColor=#6881B3;align=center;arcSize=11;verticalAlign=top;" parent="1" vertex="1">
          <mxGeometry x="-1060" y="440" width="680" height="320" as="geometry" />
        </mxCell>
        <mxCell id="zYysgDhRsV4P9b-H903_-13" value="" style="aspect=fixed;html=1;points=[];align=center;image;fontSize=12;image=img/lib/mscae/Kubernetes.svg;" parent="1" vertex="1">
          <mxGeometry x="-504.71" y="172.25" width="50" height="48" as="geometry" />
        </mxCell>
        <mxCell id="5VQCpyMXvFSsDKne97cI-7" style="edgeStyle=orthogonalEdgeStyle;shape=flexArrow;rounded=0;orthogonalLoop=1;jettySize=auto;html=1;entryX=0.75;entryY=0;entryDx=0;entryDy=0;exitX=0.19;exitY=1;exitDx=0;exitDy=0;exitPerimeter=0;fillColor=#f8cecc;strokeColor=#b85450;" parent="1" source="7c3789c024ecab99-78" target="7c3789c024ecab99-79" edge="1">
          <mxGeometry relative="1" as="geometry">
            <mxPoint x="-550" y="370" as="sourcePoint" />
          </mxGeometry>
        </mxCell>
        <mxCell id="zYysgDhRsV4P9b-H903_-19" value="User Profile &amp;amp; &lt;br&gt;Application Services&lt;br&gt;(MyVoith)" style="text;html=1;resizable=0;autosize=1;align=center;verticalAlign=middle;points=[];fillColor=none;strokeColor=none;rounded=0;" parent="1" vertex="1">
          <mxGeometry x="-539.71" y="232.5" width="120" height="50" as="geometry" />
        </mxCell>
        <mxCell id="zYysgDhRsV4P9b-H903_-20" value="E-Learning&lt;br&gt;Platform&lt;br&gt;(Drive)" style="text;html=1;resizable=0;autosize=1;align=center;verticalAlign=middle;points=[];fillColor=none;strokeColor=none;rounded=0;" parent="1" vertex="1">
          <mxGeometry x="-875" y="227.5" width="70" height="50" as="geometry" />
        </mxCell>
        <mxCell id="zYysgDhRsV4P9b-H903_-28" value="nop commerce(?) instance&lt;br&gt;(Catalog and checkout services)" style="text;html=1;resizable=0;autosize=1;align=center;verticalAlign=middle;points=[];fillColor=none;strokeColor=none;rounded=0;" parent="1" vertex="1">
          <mxGeometry x="-367.78999999999996" y="237.5" width="190" height="30" as="geometry" />
        </mxCell>
        <mxCell id="zYysgDhRsV4P9b-H903_-29" value="" style="shape=image;imageAspect=0;aspect=fixed;verticalLabelPosition=bottom;verticalAlign=top;image=https://upload.wikimedia.org/wikipedia/commons/thumb/6/69/CoreMedia_Logo.png/1920px-CoreMedia_Logo.png;" parent="1" vertex="1">
          <mxGeometry x="-139.92999999999995" y="170.25" width="169.93" height="50" as="geometry" />
        </mxCell>
        <mxCell id="zYysgDhRsV4P9b-H903_-30" value="Coremedia CMS system&lt;br&gt;(static content service)" style="text;html=1;resizable=0;autosize=1;align=center;verticalAlign=middle;points=[];fillColor=none;strokeColor=none;rounded=0;" parent="1" vertex="1">
          <mxGeometry x="-129.95999999999998" y="232.5" width="150" height="30" as="geometry" />
        </mxCell>
        <mxCell id="zYysgDhRsV4P9b-H903_-35" value="" style="verticalLabelPosition=bottom;html=1;verticalAlign=top;align=center;strokeColor=none;fillColor=#00BEF2;shape=mxgraph.azure.azure_active_directory;" parent="1" vertex="1">
          <mxGeometry x="-280.0000000000001" y="526" width="74.5" height="75" as="geometry" />
        </mxCell>
        <mxCell id="zYysgDhRsV4P9b-H903_-36" value="Azure Active Directory" style="text;html=1;resizable=0;autosize=1;align=center;verticalAlign=middle;points=[];rounded=0;fontStyle=1" parent="1" vertex="1">
          <mxGeometry x="-308.88000000000005" y="606" width="140" height="20" as="geometry" />
        </mxCell>
        <mxCell id="zYysgDhRsV4P9b-H903_-49" value="" style="shape=image;imageAspect=0;aspect=fixed;verticalLabelPosition=bottom;verticalAlign=top;image=https://upload.wikimedia.org/wikipedia/commons/thumb/c/cb/Microsoft_Dynamics_Logo.svg/1024px-Microsoft_Dynamics_Logo.svg.png;" parent="1" vertex="1">
          <mxGeometry x="-830" y="580" width="185.24" height="140" as="geometry" />
        </mxCell>
        <mxCell id="zYysgDhRsV4P9b-H903_-50" value="" style="fontColor=#0066CC;verticalAlign=top;verticalLabelPosition=bottom;labelPosition=center;align=center;html=1;outlineConnect=0;fillColor=#CCCCCC;strokeColor=#6881B3;gradientColor=none;gradientDirection=north;strokeWidth=2;shape=mxgraph.networks.virtual_server;" parent="1" vertex="1">
          <mxGeometry x="-1012.5" y="540" width="55" height="61" as="geometry" />
        </mxCell>
        <mxCell id="zYysgDhRsV4P9b-H903_-51" value="&lt;b&gt;CRM System&lt;/b&gt;" style="text;html=1;resizable=0;autosize=1;align=center;verticalAlign=middle;points=[];fillColor=none;strokeColor=none;rounded=0;" parent="1" vertex="1">
          <mxGeometry x="-1030" y="606" width="90" height="20" as="geometry" />
        </mxCell>
        <mxCell id="zYysgDhRsV4P9b-H903_-55" value="" style="fontColor=#0066CC;verticalAlign=top;verticalLabelPosition=bottom;labelPosition=center;align=center;html=1;outlineConnect=0;fillColor=#CCCCCC;strokeColor=#6881B3;gradientColor=none;gradientDirection=north;strokeWidth=2;shape=mxgraph.networks.virtual_server;" parent="1" vertex="1">
          <mxGeometry x="-774.71" y="540" width="55" height="61" as="geometry" />
        </mxCell>
        <mxCell id="zYysgDhRsV4P9b-H903_-56" value="&lt;b&gt;ERP System&lt;/b&gt;" style="text;html=1;resizable=0;autosize=1;align=center;verticalAlign=middle;points=[];fillColor=none;strokeColor=none;rounded=0;" parent="1" vertex="1">
          <mxGeometry x="-790" y="606" width="90" height="20" as="geometry" />
        </mxCell>
        <mxCell id="zYysgDhRsV4P9b-H903_-68" value="" style="fontColor=#0066CC;verticalAlign=top;verticalLabelPosition=bottom;labelPosition=center;align=center;html=1;outlineConnect=0;fillColor=#CCCCCC;strokeColor=#6881B3;gradientColor=none;gradientDirection=north;strokeWidth=2;shape=mxgraph.networks.virtual_server;" parent="1" vertex="1">
          <mxGeometry x="-564.71" y="540" width="55" height="61" as="geometry" />
        </mxCell>
        <mxCell id="zYysgDhRsV4P9b-H903_-69" value="&lt;b&gt;Marketing System&lt;br&gt;&lt;/b&gt;" style="text;html=1;resizable=0;autosize=1;align=center;verticalAlign=middle;points=[];fillColor=none;strokeColor=none;rounded=0;" parent="1" vertex="1">
          <mxGeometry x="-589.71" y="606" width="120" height="20" as="geometry" />
        </mxCell>
        <mxCell id="zYysgDhRsV4P9b-H903_-93" value="&lt;b&gt;Public, i.e. https://innospace.vde.com&lt;br&gt;&lt;/b&gt;" style="text;html=1;resizable=0;autosize=1;align=center;verticalAlign=middle;points=[];fillColor=none;strokeColor=none;rounded=0;" parent="1" vertex="1">
          <mxGeometry x="-617.35" y="-10" width="230" height="20" as="geometry" />
        </mxCell>
        <mxCell id="zYysgDhRsV4P9b-H903_-97" value="" style="fontColor=#0066CC;verticalAlign=top;verticalLabelPosition=bottom;labelPosition=center;align=center;html=1;outlineConnect=0;fillColor=#CCCCCC;strokeColor=#6881B3;gradientColor=none;gradientDirection=north;strokeWidth=2;shape=mxgraph.networks.virtual_server;" parent="1" vertex="1">
          <mxGeometry x="-7.500000000000057" y="539" width="55" height="61" as="geometry" />
        </mxCell>
        <mxCell id="zYysgDhRsV4P9b-H903_-101" value="&lt;b&gt;Marketing System&lt;br&gt;Evalanche&lt;br&gt;&lt;/b&gt;" style="text;html=1;resizable=0;autosize=1;align=center;verticalAlign=middle;points=[];fillColor=none;strokeColor=none;rounded=0;" parent="1" vertex="1">
          <mxGeometry x="-40.00000000000006" y="605" width="120" height="30" as="geometry" />
        </mxCell>
        <mxCell id="zYysgDhRsV4P9b-H903_-130" style="edgeStyle=elbowEdgeStyle;rounded=0;orthogonalLoop=1;jettySize=auto;elbow=vertical;html=1;exitX=0;exitY=0.5;exitDx=0;exitDy=0;strokeWidth=2;" parent="1" edge="1">
          <mxGeometry relative="1" as="geometry">
            <mxPoint x="-610" y="150" as="sourcePoint" />
            <mxPoint x="-610" y="150" as="targetPoint" />
          </mxGeometry>
        </mxCell>
        <mxCell id="5VQCpyMXvFSsDKne97cI-4" value="" style="fontColor=#0066CC;verticalAlign=top;verticalLabelPosition=bottom;labelPosition=center;align=center;html=1;outlineConnect=0;fillColor=#CCCCCC;strokeColor=#6881B3;gradientColor=none;gradientDirection=north;strokeWidth=2;shape=mxgraph.networks.virtual_server;" parent="1" vertex="1">
          <mxGeometry x="156.39" y="535.25" width="55" height="61" as="geometry" />
        </mxCell>
        <mxCell id="5VQCpyMXvFSsDKne97cI-5" value="&lt;b&gt;VDE Verlag Shop&lt;br&gt;&lt;/b&gt;" style="text;html=1;resizable=0;autosize=1;align=center;verticalAlign=middle;points=[];fillColor=none;strokeColor=none;rounded=0;" parent="1" vertex="1">
          <mxGeometry x="128.89" y="605" width="110" height="20" as="geometry" />
        </mxCell>
        <mxCell id="5VQCpyMXvFSsDKne97cI-10" style="edgeStyle=orthogonalEdgeStyle;shape=flexArrow;rounded=0;orthogonalLoop=1;jettySize=auto;html=1;exitX=0.75;exitY=1;exitDx=0;exitDy=0;fillColor=#f8cecc;strokeColor=#b85450;" parent="1" source="7c3789c024ecab99-78" edge="1">
          <mxGeometry relative="1" as="geometry">
            <mxPoint y="360" as="sourcePoint" />
            <mxPoint x="-5" y="440" as="targetPoint" />
            <Array as="points">
              <mxPoint x="-100" y="390" />
              <mxPoint x="-5" y="390" />
            </Array>
          </mxGeometry>
        </mxCell>
        <mxCell id="5VQCpyMXvFSsDKne97cI-16" value="LOGIN / REGISTRATION&lt;br style=&quot;font-size: 12px;&quot;&gt;USER PROFILE STORE" style="text;html=1;resizable=0;autosize=1;align=center;verticalAlign=middle;points=[];fillColor=none;strokeColor=none;rounded=0;fontSize=12;fontStyle=1" parent="1" vertex="1">
          <mxGeometry x="-313.88" y="635" width="150" height="30" as="geometry" />
        </mxCell>
        <mxCell id="hzs8G2BnuAS4f3jiqhve-3" value="" style="fontColor=#0066CC;verticalAlign=top;verticalLabelPosition=bottom;labelPosition=center;align=center;html=1;outlineConnect=0;fillColor=#CCCCCC;strokeColor=#6881B3;gradientColor=none;gradientDirection=north;strokeWidth=2;shape=mxgraph.networks.virtual_server;" parent="1" vertex="1">
          <mxGeometry x="-875" y="165.75" width="55" height="61" as="geometry" />
        </mxCell>
        <mxCell id="wJw1AYEUA0vpzyY4eTX8-1" value="" style="shape=image;imageAspect=0;aspect=fixed;verticalLabelPosition=bottom;verticalAlign=top;image=https://upload.wikimedia.org/wikipedia/commons/thumb/c/cb/Microsoft_Dynamics_Logo.svg/1024px-Microsoft_Dynamics_Logo.svg.png;" vertex="1" parent="1">
          <mxGeometry x="-1060.24" y="580" width="185.24" height="140" as="geometry" />
        </mxCell>
        <mxCell id="wJw1AYEUA0vpzyY4eTX8-15" style="edgeStyle=orthogonalEdgeStyle;rounded=0;orthogonalLoop=1;jettySize=auto;html=1;strokeWidth=2;fontSize=12;fontColor=#FF0000;fillColor=#ffe6cc;strokeColor=#d79b00;" edge="1" parent="1" source="wJw1AYEUA0vpzyY4eTX8-10" target="hzs8G2BnuAS4f3jiqhve-3">
          <mxGeometry relative="1" as="geometry">
            <Array as="points">
              <mxPoint x="-840" y="100" />
              <mxPoint x="-840" y="100" />
            </Array>
          </mxGeometry>
        </mxCell>
        <mxCell id="wJw1AYEUA0vpzyY4eTX8-16" style="edgeStyle=orthogonalEdgeStyle;rounded=0;orthogonalLoop=1;jettySize=auto;html=1;strokeWidth=2;fontSize=12;fontColor=#FF0000;fillColor=#ffe6cc;strokeColor=#d79b00;" edge="1" parent="1" source="wJw1AYEUA0vpzyY4eTX8-10" target="zYysgDhRsV4P9b-H903_-13">
          <mxGeometry relative="1" as="geometry">
            <Array as="points">
              <mxPoint x="-480" y="90" />
              <mxPoint x="-480" y="90" />
            </Array>
          </mxGeometry>
        </mxCell>
        <mxCell id="wJw1AYEUA0vpzyY4eTX8-17" style="edgeStyle=orthogonalEdgeStyle;rounded=0;orthogonalLoop=1;jettySize=auto;html=1;strokeWidth=2;fontSize=12;fontColor=#FF0000;fillColor=#ffe6cc;strokeColor=#d79b00;" edge="1" parent="1" source="wJw1AYEUA0vpzyY4eTX8-10" target="wJw1AYEUA0vpzyY4eTX8-19">
          <mxGeometry relative="1" as="geometry">
            <mxPoint x="-273" y="166.5" as="targetPoint" />
            <Array as="points">
              <mxPoint x="-270" y="100" />
              <mxPoint x="-270" y="100" />
            </Array>
          </mxGeometry>
        </mxCell>
        <mxCell id="wJw1AYEUA0vpzyY4eTX8-18" style="edgeStyle=orthogonalEdgeStyle;rounded=0;orthogonalLoop=1;jettySize=auto;html=1;strokeWidth=2;fontSize=12;fontColor=#FF0000;fillColor=#ffe6cc;strokeColor=#d79b00;" edge="1" parent="1" source="wJw1AYEUA0vpzyY4eTX8-10" target="zYysgDhRsV4P9b-H903_-29">
          <mxGeometry relative="1" as="geometry">
            <Array as="points">
              <mxPoint x="-55" y="90" />
              <mxPoint x="-55" y="90" />
            </Array>
          </mxGeometry>
        </mxCell>
        <mxCell id="wJw1AYEUA0vpzyY4eTX8-10" value="Frontend: t.b.d." style="rounded=1;whiteSpace=wrap;html=1;shadow=0;comic=0;strokeColor=#036897;strokeWidth=2;fillColor=none;fontFamily=Verdana;fontSize=28;fontColor=#6881B3;align=center;arcSize=41;verticalAlign=top;" vertex="1" parent="1">
          <mxGeometry x="-970" y="20" width="1037.21" height="50" as="geometry" />
        </mxCell>
        <mxCell id="wJw1AYEUA0vpzyY4eTX8-11" value="Coremedia? MyVoith? Something New?" style="text;html=1;resizable=0;autosize=1;align=center;verticalAlign=middle;points=[];fillColor=none;strokeColor=none;rounded=0;fontColor=#FF0000;fontStyle=1" vertex="1" parent="1">
          <mxGeometry x="-195" y="40" width="240" height="20" as="geometry" />
        </mxCell>
        <mxCell id="wJw1AYEUA0vpzyY4eTX8-12" style="edgeStyle=orthogonalEdgeStyle;rounded=0;orthogonalLoop=1;jettySize=auto;html=1;dashed=1;strokeWidth=2;fontSize=12;fontColor=#FF0000;exitX=0.5;exitY=1;exitDx=0;exitDy=0;" edge="1" parent="1" source="zYysgDhRsV4P9b-H903_-125" target="zYysgDhRsV4P9b-H903_-93">
          <mxGeometry relative="1" as="geometry">
            <mxPoint x="-505" y="-35" as="sourcePoint" />
          </mxGeometry>
        </mxCell>
        <mxCell id="wJw1AYEUA0vpzyY4eTX8-13" value="" style="group" vertex="1" connectable="0" parent="1">
          <mxGeometry x="-539.14" y="-140" width="68.28999999999996" height="80" as="geometry" />
        </mxCell>
        <mxCell id="zYysgDhRsV4P9b-H903_-126" value="" style="html=1;verticalLabelPosition=bottom;align=center;labelBackgroundColor=#ffffff;verticalAlign=top;strokeWidth=2;strokeColor=#0080F0;shadow=0;dashed=0;shape=mxgraph.ios7.icons.smartphone;" parent="wJw1AYEUA0vpzyY4eTX8-13" vertex="1">
          <mxGeometry width="36" height="50" as="geometry" />
        </mxCell>
        <mxCell id="zYysgDhRsV4P9b-H903_-125" value="" style="aspect=fixed;perimeter=ellipsePerimeter;html=1;align=center;shadow=0;dashed=0;spacingTop=3;image;image=img/lib/active_directory/laptop_client.svg;" parent="wJw1AYEUA0vpzyY4eTX8-13" vertex="1">
          <mxGeometry x="5.289999999999964" y="10" width="63" height="70" as="geometry" />
        </mxCell>
        <mxCell id="wJw1AYEUA0vpzyY4eTX8-19" value="" style="outlineConnect=0;fontColor=#232F3E;gradientColor=none;fillColor=#277116;strokeColor=none;dashed=0;verticalLabelPosition=bottom;verticalAlign=top;align=center;html=1;fontSize=12;fontStyle=0;aspect=fixed;pointerEvents=1;shape=mxgraph.aws4.cart;" vertex="1" parent="1">
          <mxGeometry x="-299.75" y="160.75" width="59.5" height="59.5" as="geometry" />
        </mxCell>
      </root>
    </mxGraphModel>
  </diagram>
</mxfile>
